<?xml version="1.0" encoding="UTF-8"?>
<svg width="945px" height="258px" viewBox="0 0 945 258" version="1.1" xmlns="http://www.w3.org/2000/svg" xmlns:xlink="http://www.w3.org/1999/xlink">
    <!-- Generator: Sketch 52.6 (67491) - http://www.bohemiancoding.com/sketch -->
    <title>logo_small</title>
    <desc>Created with Sketch.</desc>
    <g id="Page-2" stroke="none" stroke-width="1" fill="none" fill-rule="evenodd">
        <g id="Artboard" transform="translate(-59.000000, -471.000000)" fill="#0A9345">
            <g id="logo_small" transform="translate(59.000000, 471.000000)">
                <g id="Group" transform="translate(472.750000, 128.900000) scale(-1, 1) rotate(-180.000000) translate(-472.750000, -128.900000) translate(0.500000, 0.300000)">
                    <path d="M110,256.5 C87.5,252.9 65.6,243.4 48.6,229.8 C24,210.1 8.3,184.4 1.3,152 C-0.4,144 -0.4,113 1.3,105 C5.4,86.3 13.4,67.5 23.1,53.7 C29.2,45.1 45.1,29.2 53.7,23.1 C67.5,13.4 86.3,5.4 105,1.3 C113,-0.4 144,-0.4 152,1.3 C170.7,5.4 189.5,13.4 203.3,23.1 C211.9,29.2 227.8,45.1 233.9,53.7 C243.6,67.5 251.6,86.3 255.7,105 C257.4,113 257.4,144 255.7,152 C251.6,170.7 243.6,189.5 233.9,203.3 C227.8,211.9 211.9,227.8 203.3,233.9 C189.8,243.4 172.2,251.1 154.5,255.1 C146.6,256.9 118.3,257.8 110,256.5 Z M153.6,217.9 C155.4,217 159,214.2 161.7,211.7 L166.5,207.2 L174.5,207.4 C185.8,207.7 194.1,203.6 195.8,196.8 C196.6,193.2 194.6,192.5 188,194.1 C184.7,194.8 180.7,195.5 179.2,195.5 L176.3,195.5 L179.9,191.4 C186.3,183.9 188.9,175.4 186.3,170.5 C184.1,166.4 182,166.9 178.9,172.2 C176.2,176.8 165.9,188.5 164.5,188.5 C164.1,188.5 163,186.9 161.9,185 C160.9,183.1 159.9,181.5 159.8,181.5 C159.1,181.5 151.5,186.8 151.5,187.3 C151.5,187.6 152.3,188.7 153.3,189.8 C155,191.8 154.9,191.8 147.5,191.2 C143.4,190.9 137.4,189.7 134.3,188.5 C128,186.2 126.5,186.4 126.5,189.8 C126.5,196 135.3,202.5 145.8,204 C151.7,204.8 151.1,205.9 141.8,211.1 C138.4,213.1 135.5,215.1 135.5,215.5 C135.5,216 136.7,217.3 138.3,218.5 C140.5,220.3 141.9,220.6 145.7,220.2 C148.3,219.9 151.8,218.9 153.6,217.9 Z M107.6,209.9 C111.7,207.8 111,205.7 105.2,202.5 C102.6,201.1 99.7,199.2 98.8,198.2 C97.2,196.6 97.3,196.5 101,196.5 C109.1,196.4 118.5,190 118.5,184.4 C118.5,182.9 118.2,181.4 117.7,181.1 C117.3,180.9 114.3,181.6 111,182.7 C107.8,183.7 102,184.9 98.1,185.2 L91.2,185.8 L96.3,179.4 L101.5,173.1 L96.3,169.8 L91.1,166.5 L87.4,173.3 C85.3,177 83.1,180 82.4,180 C81.7,180 79,177.1 76.3,173.5 C73.7,169.9 70.8,166.1 70,165 C68.5,163 68.5,163 66.5,165.4 C62.9,169.6 64.8,177.9 71.1,185.4 L74,188.8 L69.5,188.2 C67,187.8 63.4,187.3 61.4,186.9 C57.1,186.2 56.1,187.6 58,192.2 C60,196.9 67.2,200 76.2,200 C82.8,200 83.7,200.3 86.7,203.1 C91.6,207.6 93.1,208.6 97.2,210.1 C102.2,211.8 104,211.8 107.6,209.9 Z M157.3,177.9 C157.4,177.9 156.2,174.8 154.5,171.2 C151.8,165.1 151.3,164.6 149.3,165.4 C143.1,167.9 139.5,169.6 139.5,170.1 C139.5,170.8 145.2,179.3 147.3,181.7 C148.6,183.3 149,183.2 152.9,180.7 C155.1,179.3 157.1,178 157.3,177.9 Z M108,164.3 C109.9,161.4 111.5,158.5 111.5,158 C111.5,156.9 97.8,149.8 97.3,150.6 C96.6,151.5 93.5,161.3 93.5,162.3 C93.5,163.1 102.9,169.3 104.2,169.5 C104.3,169.5 106,167.1 108,164.3 Z M144,163 C149,160.8 149.6,160.3 148.9,158.3 C148.5,157 147.6,153.8 146.9,151.1 C146.2,148.5 145.5,146.1 145.3,145.9 C145.1,145.7 141.4,146.5 137.2,147.7 C132.4,149 129.5,150.3 129.5,151.2 C129.5,152.6 134,162.1 135.7,164.3 C137.1,165.9 137.6,165.9 144,163 Z M117.3,145.7 C119,141.5 120.7,136.7 121.1,135.1 C121.8,132.3 121.9,132.5 124.1,138.5 C125.3,141.9 126.7,145.1 127.2,145.5 C127.6,145.9 131.6,145.1 136,143.6 L144.1,141 L143,136 L141.9,131 L123.9,130.4 C114.1,130.1 104.9,129.5 103.5,129.1 C100.9,128.4 100.9,128.5 99.7,137.1 C99,141.8 98.5,145.9 98.7,146 C99.4,146.6 113.1,153.4 113.7,153.5 C114,153.5 115.7,150 117.3,145.7 Z M150.5,125 C169.8,122.1 183.7,116.7 192.5,108.8 C200.2,101.9 202.2,97 198.8,93.3 C197.3,91.6 193.8,91.5 128.2,91.5 C65.4,91.5 59,91.6 57.3,93.2 C53.7,96.5 55.8,101.8 63.3,108.6 C71.9,116.4 86.5,122.1 105,125 C116.1,126.8 139.1,126.8 150.5,125 Z M64.6,75.5 C67,73.9 70,71.8 71.2,70.9 C73.3,69.4 73.6,69.5 77.7,72.8 C87.6,80.8 91.7,80.5 104.1,71.1 C104.9,70.5 106.5,71.1 109.1,73.2 C118.7,80.7 123,80.5 133.5,72.1 C137.8,68.7 138,68.6 140.5,70.2 C156.5,80.9 159.5,81 171.8,71.3 L175.6,68.3 L180.8,71.7 C193.2,79.9 196.6,80.4 204.8,74.8 C207.8,72.7 212.1,69.4 214.5,67.3 C219.1,63.3 219,62.2 214.2,57.7 L211.8,55.4 L205.4,61 C201.9,64 198,66.8 196.7,67.2 C194.9,67.6 192,66.2 184.4,61 L174.5,54.3 L167.8,60.4 C164.2,63.8 160.1,66.8 158.8,67.2 C156.9,67.6 154.1,66.3 146.3,61 L136.2,54.2 L134.4,56.7 C131.9,60.1 122.2,67.5 120.2,67.5 C119.3,67.5 115.7,64.8 112.2,61.5 C108.6,58.2 105.4,55.5 105,55.5 C104.6,55.5 101.4,58.2 97.8,61.5 C94.3,64.8 90.6,67.5 89.6,67.5 C88.7,67.5 84.7,64.8 80.7,61.5 C76.8,58.2 73.4,55.5 73,55.5 C72.7,55.5 69.3,58.2 65.3,61.5 C61.4,64.8 57.4,67.5 56.5,67.5 C55.6,67.5 51.6,64.7 47.6,61.4 L40.3,55.2 L36.6,58.9 L33,62.6 L38.5,67.6 C51.3,79.2 56.6,80.8 64.6,75.5 Z" id="Shape" fill-rule="nonzero"></path>
                    <path d="M839.5,139.5 L839.5,101.5 L847.5,101.5 C853.9,101.5 855.5,101.8 855.5,103 C855.5,104.9 855.9,104.9 859.8,102.8 C861.8,101.8 865.4,101.1 869.1,101.1 C882.4,101.1 890.9,110.7 892.2,127 C893.6,144.3 885.2,157.5 873,157.5 C869,157.5 859.3,153.7 858.1,151.6 C856.1,148.5 855.5,151.6 855.5,164 L855.5,177.5 L847.5,177.5 L839.5,177.5 L839.5,139.5 Z M870.7,143.4 C873.6,141.8 875.5,136.4 875.5,129.6 C875.5,116.9 869.6,110.9 859,112.9 L855.5,113.6 L855.5,127.5 L855.5,141.4 L858.3,142.9 C861.5,144.7 867.8,144.9 870.7,143.4 Z" id="Shape" fill-rule="nonzero"></path>
                    <path d="M296.5,137.4 L296.5,101.2 L315.8,101.8 C326.7,102.1 336.6,102.9 338.7,103.6 C343.7,105.2 349.1,109.9 351.5,114.6 C353.6,118.7 354.2,126.7 352.6,130.8 C351.3,134.2 346.7,138.3 342.8,139.6 C338.7,140.9 338.7,141.5 342.5,144.3 C347.1,147.8 348.8,151.9 348.3,158.8 C347.9,164.1 347.5,165.1 344.3,168.1 C342.3,169.9 339,171.8 336.8,172.4 C334.7,173 324.8,173.5 314.8,173.5 L296.5,173.5 L296.5,137.4 Z M325.6,160.5 C329.8,159.3 332,155.4 330.9,151.1 C329.9,147 326.9,145.5 319.8,145.5 L313.5,145.5 L313.5,153.5 L313.5,161.5 L317.8,161.5 C320.1,161.5 323.6,161 325.6,160.5 Z M332.9,130.6 C334.7,128.9 335.5,127.1 335.5,124.8 C335.5,117.4 331.2,114.5 320.5,114.5 L313.5,114.5 L313.5,124.1 L313.5,133.7 L321.9,133.4 C329.2,133 330.7,132.7 332.9,130.6 Z" id="Shape" fill-rule="nonzero"></path>
                    <path d="M730.5,167.5 L730.5,161.6 L738.8,161.3 L747,161 L747,142.5 C747,132.3 746.7,122.8 746.2,121.3 C744.4,114.8 736.7,112.1 727.6,114.8 L722.5,116.3 L722.5,109 L722.5,101.8 L730.8,101.1 C748.2,99.8 757.8,103.6 762.6,114 C764.3,117.6 764.5,120.8 764.5,145.8 L764.5,173.5 L747.5,173.5 L730.5,173.5 L730.5,167.5 Z" id="Path"></path>
                    <path d="M377.2,156.1 C370.1,153.5 365.8,149.9 363,144.1 C355.9,129.7 360.2,110.9 372.1,103.9 C378.1,100.4 389.4,99.4 397.6,101.8 C403.2,103.5 409.4,108.5 412,113.4 C414.2,117.9 415.7,127.3 415,132.8 C413.4,143.9 409.3,150.4 401,154.8 C395.9,157.4 382.8,158.2 377.2,156.1 Z M394.3,143.2 C397.4,140.4 398.8,134.3 398.3,126.5 C397.6,117.7 395.6,113.9 390.5,112.4 C387,111.3 385.9,111.4 382.9,112.8 C378.3,115.1 376.5,119.5 376.5,128.7 C376.6,138.3 379,144 383.7,145.4 C387.9,146.6 391.4,145.9 394.3,143.2 Z" id="Shape" fill-rule="nonzero"></path>
                    <path d="M475,156.2 L469,155 L468.7,148.6 C468.4,142.4 468.4,142.3 470.7,142.9 C484.7,146.9 488.8,147.1 495,144.3 C497.8,143 499.5,138.7 497.6,137.5 C496.9,137.1 493,136.5 489,136.2 C475,135 466.4,129.9 464.9,121.9 C464,116.9 465,110.6 467.2,107.6 C471.1,102.4 474.2,101 481.4,101 C487.3,101 488.9,101.4 493.3,104.2 L498.5,107.4 L498.5,104.5 L498.5,101.5 L506.6,101.5 L514.6,101.5 L514.3,123.9 C514,149.6 513.8,150 505.1,154.4 C501.2,156.4 498.4,156.9 490.6,157.1 C485.3,157.3 478.3,156.9 475,156.2 Z M498.5,121.5 C498.5,115.8 498.3,115.4 495.3,113.5 C488.7,109.5 481.2,112.1 481.2,118.3 C481.2,120.1 482,122.4 483,123.5 C484.7,125.4 490.5,127.2 495.8,127.4 C498.5,127.5 498.5,127.4 498.5,121.5 Z" id="Shape" fill-rule="nonzero"></path>
                    <path d="M544.3,156.1 C531.8,152.7 524.5,142.8 524.5,128.9 C524.5,117 530.1,107.7 539.8,103.5 C547.1,100.3 558.1,99.8 566,102.2 L572,104.1 L572.3,111.3 C572.5,115.3 572.2,118.5 571.8,118.5 C571.4,118.5 569,117.1 566.6,115.5 C562.4,112.7 559.3,112 552.5,112.4 C546.1,112.9 541.5,119.7 541.5,128.8 C541.5,139.7 546.5,145.5 555.8,145.5 C560.4,145.5 567.6,142.8 569,140.5 C569.3,140 570.3,139.5 571.1,139.5 C572.2,139.5 572.5,141.1 572.5,146.4 C572.5,153 572.4,153.3 569.8,154.3 C561.1,157.7 552.5,158.3 544.3,156.1 Z" id="Path"></path>
                    <path d="M588,156.2 L582,155 L581.7,148.6 C581.4,142.4 581.4,142.3 583.7,142.9 C597.7,146.9 601.8,147.1 608,144.3 C610.8,143 612.5,138.7 610.6,137.5 C609.9,137.1 606,136.5 602,136.2 C588,135 579.4,129.9 577.9,121.9 C577,116.9 578,110.6 580.2,107.6 C584.1,102.4 587.2,101 594.4,101 C600.3,101 601.9,101.4 606.3,104.2 L611.5,107.4 L611.5,104.5 L611.5,101.5 L619.6,101.5 L627.6,101.5 L627.3,123.9 C627,149.6 626.8,150 618.1,154.4 C614.2,156.4 611.4,156.9 603.6,157.1 C598.3,157.3 591.3,156.9 588,156.2 Z M611.5,121.5 C611.5,115.8 611.3,115.4 608.3,113.5 C601.7,109.5 594.2,112.1 594.2,118.3 C594.2,120.1 595,122.4 596,123.5 C597.7,125.4 603.5,127.2 608.8,127.4 C611.5,127.5 611.5,127.4 611.5,121.5 Z" id="Shape" fill-rule="nonzero"></path>
                    <path d="M792.2,156.1 C785.1,153.5 780.8,149.9 778,144.1 C770.9,129.7 775.2,110.9 787.1,103.9 C793.1,100.4 804.4,99.4 812.6,101.8 C818.2,103.5 824.4,108.5 827,113.4 C829.2,117.9 830.7,127.3 830,132.8 C828.4,143.9 824.3,150.4 816,154.8 C810.9,157.4 797.8,158.2 792.2,156.1 Z M809.3,143.2 C812.4,140.4 813.8,134.3 813.3,126.5 C812.6,117.7 810.6,113.9 805.5,112.4 C802,111.3 800.9,111.4 797.9,112.8 C793.3,115.1 791.5,119.5 791.5,128.7 C791.6,138.3 794,144 798.7,145.4 C802.9,146.6 806.4,145.9 809.3,143.2 Z" id="Shape" fill-rule="nonzero"></path>
                    <path d="M914.2,156.1 C904.7,153.5 899.5,147.3 899.5,139.1 C899.6,129.2 904.1,125.5 921.2,121.5 C927.1,120.2 929,118.5 928,115.5 C926.2,109.7 911.5,110.3 902.3,116.7 C900.9,117.7 899.4,118.5 899.1,118.5 C898.8,118.5 898.5,115.4 898.5,111.6 C898.5,105.1 898.6,104.7 901.3,103.6 C913.7,98.7 931,99.9 938.5,106.1 C942.7,109.7 944.5,113.5 944.5,119 C944.5,128 940.3,131.7 926.1,135.4 C921.8,136.5 917.5,138 916.7,138.8 C914.7,140.9 916,144.1 919.5,145.5 C924.5,147.6 930.8,146.2 941.8,140.7 C942.2,140.5 942.5,143.4 942.3,147.1 L942,154 L938,155.3 C932.1,157.3 919.8,157.7 914.2,156.1 Z" id="Path"></path>
                    <path d="M453.2,155.1 C451.2,154.3 448,152.6 446.1,151.1 C444.2,149.7 442.4,148.5 442.1,148.5 C441.8,148.5 441.5,150.1 441.5,152 L441.5,155.5 L433.5,155.5 L425.5,155.5 L425.5,128.5 L425.5,101.5 L433.5,101.5 L441.5,101.5 L441.5,119.9 L441.5,138.3 L445.3,139.6 C447.3,140.3 451.8,140.9 455.3,141 L461.5,141 L461.5,148.8 C461.5,156.1 461.4,156.5 459.3,156.5 C458,156.4 455.3,155.8 453.2,155.1 Z" id="Path"></path>
                    <path d="M635.5,155 C635.5,154.7 639.8,142.9 645.2,128.8 L654.8,103 L652.8,97.5 C651.7,94.5 649.8,89.6 648.6,86.8 L646.5,81.5 L655.3,81.5 L664.2,81.5 L674.8,110.3 C680.6,126.1 686.8,142.7 688.4,147.3 L691.4,155.5 L683,155.5 C675.9,155.5 674.6,155.2 674.1,153.8 C670,139.2 664.1,122.5 663.5,123.1 C663.1,123.6 660.4,131.1 657.5,139.8 L652.3,155.5 L643.9,155.5 C639.3,155.5 635.5,155.3 635.5,155 Z" id="Path"></path>
                </g>
            </g>
        </g>
    </g>
</svg>