<svg width="1200" height="1200" viewBox="0 0 1200 1200" fill="none" xmlns="http://www.w3.org/2000/svg">
<rect width="1200" height="1200" fill="#04AA6D"/>
<path d="M463.682 614H443.057V555.818H463.852C469.705 555.818 474.742 556.983 478.966 559.312C483.189 561.623 486.438 564.947 488.71 569.284C491.002 573.621 492.148 578.811 492.148 584.852C492.148 590.913 491.002 596.121 488.71 600.477C486.438 604.833 483.17 608.176 478.909 610.506C474.667 612.835 469.591 614 463.682 614ZM455.358 603.46H463.17C466.807 603.46 469.866 602.816 472.347 601.528C474.847 600.222 476.722 598.205 477.972 595.477C479.241 592.731 479.875 589.189 479.875 584.852C479.875 580.553 479.241 577.04 477.972 574.312C476.722 571.585 474.856 569.578 472.375 568.29C469.894 567.002 466.835 566.358 463.199 566.358H455.358V603.46ZM520.919 614.852C516.43 614.852 512.567 613.943 509.328 612.125C506.108 610.288 503.627 607.693 501.885 604.341C500.143 600.97 499.271 596.983 499.271 592.381C499.271 587.892 500.143 583.953 501.885 580.562C503.627 577.172 506.08 574.53 509.243 572.636C512.425 570.742 516.156 569.795 520.436 569.795C523.315 569.795 525.995 570.259 528.476 571.188C530.976 572.097 533.154 573.47 535.01 575.307C536.885 577.144 538.343 579.455 539.385 582.239C540.427 585.004 540.947 588.242 540.947 591.955V595.278H504.101V587.778H529.555C529.555 586.036 529.177 584.492 528.419 583.148C527.661 581.803 526.61 580.752 525.266 579.994C523.94 579.218 522.396 578.83 520.635 578.83C518.798 578.83 517.169 579.256 515.749 580.108C514.347 580.941 513.249 582.068 512.453 583.489C511.658 584.89 511.25 586.453 511.232 588.176V595.307C511.232 597.466 511.629 599.331 512.425 600.903C513.239 602.475 514.385 603.688 515.862 604.54C517.339 605.392 519.091 605.818 521.118 605.818C522.463 605.818 523.694 605.629 524.811 605.25C525.929 604.871 526.885 604.303 527.68 603.545C528.476 602.788 529.082 601.86 529.499 600.761L540.692 601.5C540.124 604.189 538.959 606.538 537.197 608.545C535.455 610.534 533.201 612.087 530.436 613.205C527.69 614.303 524.518 614.852 520.919 614.852ZM561.288 614.824C558.504 614.824 556.023 614.341 553.845 613.375C551.667 612.39 549.944 610.941 548.675 609.028C547.425 607.097 546.8 604.691 546.8 601.812C546.8 599.388 547.245 597.352 548.135 595.705C549.025 594.057 550.237 592.731 551.771 591.727C553.305 590.723 555.048 589.966 556.999 589.455C558.968 588.943 561.033 588.583 563.192 588.375C565.73 588.11 567.775 587.864 569.328 587.636C570.881 587.39 572.008 587.03 572.709 586.557C573.41 586.083 573.76 585.383 573.76 584.455V584.284C573.76 582.485 573.192 581.093 572.055 580.108C570.938 579.123 569.347 578.631 567.283 578.631C565.105 578.631 563.372 579.114 562.084 580.08C560.796 581.027 559.944 582.22 559.527 583.659L548.334 582.75C548.902 580.098 550.019 577.807 551.686 575.875C553.353 573.924 555.502 572.428 558.135 571.386C560.786 570.326 563.855 569.795 567.339 569.795C569.764 569.795 572.084 570.08 574.3 570.648C576.535 571.216 578.514 572.097 580.237 573.29C581.98 574.483 583.353 576.017 584.357 577.892C585.36 579.748 585.862 581.973 585.862 584.568V614H574.385V607.949H574.044C573.343 609.312 572.406 610.515 571.232 611.557C570.057 612.58 568.646 613.384 566.999 613.972C565.351 614.54 563.447 614.824 561.288 614.824ZM564.754 606.472C566.535 606.472 568.107 606.121 569.47 605.42C570.834 604.701 571.904 603.735 572.68 602.523C573.457 601.311 573.845 599.937 573.845 598.403V593.773C573.466 594.019 572.946 594.246 572.283 594.455C571.639 594.644 570.91 594.824 570.095 594.994C569.281 595.146 568.466 595.288 567.652 595.42C566.838 595.534 566.099 595.638 565.436 595.733C564.016 595.941 562.775 596.273 561.714 596.727C560.654 597.182 559.83 597.797 559.243 598.574C558.656 599.331 558.362 600.278 558.362 601.415C558.362 603.062 558.959 604.322 560.152 605.193C561.364 606.045 562.898 606.472 564.754 606.472ZM607.354 555.818V614H595.251V555.818H607.354ZM653.355 582.807L642.276 583.489C642.086 582.542 641.679 581.689 641.054 580.932C640.429 580.155 639.605 579.54 638.582 579.085C637.579 578.612 636.376 578.375 634.974 578.375C633.099 578.375 631.518 578.773 630.23 579.568C628.942 580.345 628.298 581.386 628.298 582.693C628.298 583.735 628.715 584.616 629.548 585.335C630.382 586.055 631.812 586.633 633.838 587.068L641.736 588.659C645.978 589.53 649.141 590.932 651.224 592.864C653.308 594.795 654.349 597.333 654.349 600.477C654.349 603.337 653.507 605.847 651.821 608.006C650.154 610.165 647.863 611.85 644.946 613.062C642.048 614.256 638.705 614.852 634.918 614.852C629.141 614.852 624.539 613.65 621.111 611.244C617.702 608.82 615.704 605.525 615.116 601.358L627.02 600.733C627.38 602.494 628.251 603.839 629.634 604.767C631.016 605.676 632.787 606.131 634.946 606.131C637.067 606.131 638.772 605.723 640.06 604.909C641.366 604.076 642.029 603.006 642.048 601.699C642.029 600.6 641.565 599.701 640.656 599C639.747 598.28 638.346 597.731 636.452 597.352L628.895 595.847C624.634 594.994 621.461 593.517 619.378 591.415C617.313 589.312 616.281 586.633 616.281 583.375C616.281 580.572 617.039 578.157 618.554 576.131C620.088 574.104 622.238 572.542 625.003 571.443C627.787 570.345 631.045 569.795 634.776 569.795C640.287 569.795 644.624 570.96 647.787 573.29C650.969 575.619 652.825 578.792 653.355 582.807ZM680.486 614V570.364H692.588V614H680.486ZM686.565 564.739C684.766 564.739 683.223 564.142 681.935 562.949C680.666 561.737 680.031 560.288 680.031 558.602C680.031 556.936 680.666 555.506 681.935 554.312C683.223 553.1 684.766 552.494 686.565 552.494C688.365 552.494 689.899 553.1 691.168 554.312C692.455 555.506 693.099 556.936 693.099 558.602C693.099 560.288 692.455 561.737 691.168 562.949C689.899 564.142 688.365 564.739 686.565 564.739ZM714.385 588.773V614H702.283V570.364H713.817V578.062H714.328C715.294 575.525 716.913 573.517 719.186 572.04C721.459 570.544 724.214 569.795 727.453 569.795C730.483 569.795 733.125 570.458 735.379 571.784C737.633 573.11 739.385 575.004 740.635 577.466C741.885 579.909 742.51 582.826 742.51 586.216V614H730.408V588.375C730.427 585.705 729.745 583.621 728.362 582.125C726.98 580.61 725.076 579.852 722.652 579.852C721.023 579.852 719.584 580.203 718.334 580.903C717.103 581.604 716.137 582.627 715.436 583.972C714.754 585.297 714.404 586.898 714.385 588.773ZM770.791 614V555.818H793.746C798.159 555.818 801.918 556.661 805.024 558.347C808.13 560.013 810.498 562.333 812.126 565.307C813.774 568.261 814.598 571.67 814.598 575.534C814.598 579.398 813.765 582.807 812.098 585.761C810.431 588.716 808.017 591.017 804.854 592.665C801.71 594.312 797.903 595.136 793.433 595.136H778.803V585.278H791.445C793.812 585.278 795.763 584.871 797.297 584.057C798.85 583.223 800.005 582.078 800.763 580.619C801.539 579.142 801.928 577.447 801.928 575.534C801.928 573.602 801.539 571.917 800.763 570.477C800.005 569.019 798.85 567.892 797.297 567.097C795.744 566.282 793.774 565.875 791.388 565.875H783.092V614H770.791ZM834.463 555.818V614H822.361V555.818H834.463ZM856.601 614.824C853.817 614.824 851.336 614.341 849.158 613.375C846.98 612.39 845.256 610.941 843.987 609.028C842.737 607.097 842.112 604.691 842.112 601.812C842.112 599.388 842.557 597.352 843.447 595.705C844.338 594.057 845.55 592.731 847.084 591.727C848.618 590.723 850.36 589.966 852.311 589.455C854.281 588.943 856.345 588.583 858.504 588.375C861.042 588.11 863.088 587.864 864.641 587.636C866.194 587.39 867.321 587.03 868.021 586.557C868.722 586.083 869.072 585.383 869.072 584.455V584.284C869.072 582.485 868.504 581.093 867.368 580.108C866.25 579.123 864.66 578.631 862.595 578.631C860.417 578.631 858.684 579.114 857.396 580.08C856.108 581.027 855.256 582.22 854.839 583.659L843.646 582.75C844.214 580.098 845.332 577.807 846.999 575.875C848.665 573.924 850.815 572.428 853.447 571.386C856.099 570.326 859.167 569.795 862.652 569.795C865.076 569.795 867.396 570.08 869.612 570.648C871.847 571.216 873.826 572.097 875.55 573.29C877.292 574.483 878.665 576.017 879.669 577.892C880.673 579.748 881.175 581.973 881.175 584.568V614H869.697V607.949H869.357C868.656 609.312 867.718 610.515 866.544 611.557C865.37 612.58 863.959 613.384 862.311 613.972C860.663 614.54 858.76 614.824 856.601 614.824ZM860.067 606.472C861.847 606.472 863.419 606.121 864.783 605.42C866.146 604.701 867.216 603.735 867.993 602.523C868.769 601.311 869.158 599.937 869.158 598.403V593.773C868.779 594.019 868.258 594.246 867.595 594.455C866.951 594.644 866.222 594.824 865.408 594.994C864.593 595.146 863.779 595.288 862.964 595.42C862.15 595.534 861.411 595.638 860.749 595.733C859.328 595.941 858.088 596.273 857.027 596.727C855.966 597.182 855.143 597.797 854.555 598.574C853.968 599.331 853.675 600.278 853.675 601.415C853.675 603.062 854.271 604.322 855.464 605.193C856.677 606.045 858.211 606.472 860.067 606.472ZM910.28 614.852C905.81 614.852 901.965 613.905 898.746 612.011C895.545 610.098 893.083 607.447 891.359 604.057C889.655 600.667 888.803 596.765 888.803 592.352C888.803 587.883 889.664 583.962 891.388 580.591C893.13 577.201 895.602 574.559 898.803 572.665C902.003 570.752 905.81 569.795 910.223 569.795C914.03 569.795 917.363 570.487 920.223 571.869C923.083 573.252 925.346 575.193 927.013 577.693C928.679 580.193 929.598 583.129 929.768 586.5H918.348C918.026 584.322 917.174 582.57 915.791 581.244C914.428 579.9 912.638 579.227 910.422 579.227C908.547 579.227 906.909 579.739 905.507 580.761C904.125 581.765 903.045 583.233 902.268 585.165C901.492 587.097 901.104 589.436 901.104 592.182C901.104 594.966 901.482 597.333 902.24 599.284C903.017 601.235 904.106 602.722 905.507 603.744C906.909 604.767 908.547 605.278 910.422 605.278C911.804 605.278 913.045 604.994 914.143 604.426C915.261 603.858 916.179 603.034 916.899 601.955C917.638 600.856 918.121 599.54 918.348 598.006H929.768C929.579 601.339 928.67 604.275 927.041 606.812C925.431 609.331 923.206 611.301 920.365 612.722C917.524 614.142 914.162 614.852 910.28 614.852ZM957.403 614.852C952.915 614.852 949.051 613.943 945.812 612.125C942.593 610.288 940.112 607.693 938.369 604.341C936.627 600.97 935.756 596.983 935.756 592.381C935.756 587.892 936.627 583.953 938.369 580.562C940.112 577.172 942.564 574.53 945.727 572.636C948.909 570.742 952.64 569.795 956.92 569.795C959.799 569.795 962.479 570.259 964.96 571.188C967.46 572.097 969.638 573.47 971.494 575.307C973.369 577.144 974.828 579.455 975.869 582.239C976.911 585.004 977.432 588.242 977.432 591.955V595.278H940.585V587.778H966.04C966.04 586.036 965.661 584.492 964.903 583.148C964.146 581.803 963.095 580.752 961.75 579.994C960.424 579.218 958.881 578.83 957.119 578.83C955.282 578.83 953.653 579.256 952.233 580.108C950.831 580.941 949.733 582.068 948.938 583.489C948.142 584.89 947.735 586.453 947.716 588.176V595.307C947.716 597.466 948.114 599.331 948.909 600.903C949.723 602.475 950.869 603.688 952.347 604.54C953.824 605.392 955.576 605.818 957.602 605.818C958.947 605.818 960.178 605.629 961.295 605.25C962.413 604.871 963.369 604.303 964.165 603.545C964.96 602.788 965.566 601.86 965.983 600.761L977.176 601.5C976.608 604.189 975.443 606.538 973.682 608.545C971.939 610.534 969.686 612.087 966.92 613.205C964.174 614.303 961.002 614.852 957.403 614.852Z" fill="white"/>
<g filter="url(#filter0_d_304_45)">
<g filter="url(#filter1_dd_304_45)">
<line x1="10" y1="-10" x2="248.335" y2="-10" transform="matrix(0.998026 -0.062795 0.114219 0.993456 178.388 725)" stroke="white" stroke-width="20" stroke-linecap="round"/>
<line x1="10" y1="-10" x2="85.2549" y2="-10" transform="matrix(-0.350917 -0.936407 0.979611 -0.200904 438.208 706.988)" stroke="white" stroke-width="20" stroke-linecap="round"/>
<line x1="10" y1="-10" x2="201.333" y2="-10" transform="matrix(-0.99986 -0.0167156 0.0305342 -0.999534 407.598 617.814)" stroke="white" stroke-width="20" stroke-linecap="round"/>
<line x1="10" y1="-10" x2="101.598" y2="-10" transform="matrix(-0.192553 0.981287 -0.994284 -0.106772 197.488 613.398)" stroke="white" stroke-width="20" stroke-linecap="round"/>
</g>
<line x1="10" y1="-10" x2="88.193" y2="-10" transform="matrix(0.958075 -0.286518 0.479532 0.877524 197.544 710.045)" stroke="white" stroke-width="20" stroke-linecap="round"/>
<line x1="10" y1="-10" x2="82.7711" y2="-10" transform="matrix(0.970916 0.239419 -0.410812 0.91172 327.581 677.038)" stroke="white" stroke-width="20" stroke-linecap="round"/>
<line x1="10" y1="-10" x2="22.8214" y2="-10" transform="matrix(0.121971 -0.992534 0.997746 0.0671003 346.138 672.628)" stroke="white" stroke-width="20" stroke-linecap="round"/>
<line x1="10" y1="-10" x2="62.3014" y2="-10" transform="matrix(-0.996639 0.0819205 -0.148531 -0.988908 342.135 660.782)" stroke="white" stroke-width="20" stroke-linecap="round"/>
<line x1="280.929" y1="651.03" x2="282.849" y2="673.932" stroke="white" stroke-width="20" stroke-linecap="round"/>
<path d="M341.431 646.667L392.727 627.688" stroke="white" stroke-width="20" stroke-linecap="round"/>
<line x1="277.985" y1="646.994" x2="245.471" y2="627.888" stroke="white" stroke-width="20" stroke-linecap="round"/>
<g filter="url(#filter2_dd_304_45)">
<path d="M308.892 647.591L278.32 562.33L340.129 562.462L308.892 647.591Z" fill="white"/>
<g filter="url(#filter3_dd_304_45)">
<path d="M309.852 528.182V526.264C309.852 524.808 310.159 523.471 310.775 522.251C311.402 521.02 312.308 520.038 313.491 519.304C314.687 518.558 316.143 518.185 317.859 518.185C319.599 518.185 321.061 518.552 322.245 519.286C323.441 520.02 324.34 521.003 324.944 522.234C325.559 523.453 325.867 524.796 325.867 526.264V528.182C325.867 529.638 325.559 530.981 324.944 532.212C324.328 533.432 323.423 534.408 322.227 535.142C321.032 535.888 319.576 536.261 317.859 536.261C316.119 536.261 314.657 535.888 313.474 535.142C312.29 534.408 311.39 533.432 310.775 532.212C310.159 530.981 309.852 529.638 309.852 528.182ZM315.018 526.264V528.182C315.018 529.022 315.22 529.815 315.622 530.561C316.036 531.307 316.782 531.68 317.859 531.68C318.937 531.68 319.67 531.313 320.061 530.579C320.464 529.845 320.665 529.046 320.665 528.182V526.264C320.665 525.4 320.475 524.595 320.097 523.849C319.718 523.104 318.972 522.731 317.859 522.731C316.794 522.731 316.054 523.104 315.64 523.849C315.226 524.595 315.018 525.4 315.018 526.264ZM291.19 507.372V505.455C291.19 503.987 291.504 502.643 292.131 501.424C292.759 500.193 293.664 499.21 294.848 498.477C296.044 497.743 297.488 497.376 299.18 497.376C300.932 497.376 302.4 497.743 303.584 498.477C304.768 499.21 305.667 500.193 306.283 501.424C306.898 502.643 307.206 503.987 307.206 505.455V507.372C307.206 508.84 306.892 510.183 306.265 511.403C305.649 512.622 304.744 513.598 303.548 514.332C302.365 515.054 300.909 515.415 299.18 515.415C297.452 515.415 295.99 515.049 294.795 514.315C293.611 513.569 292.711 512.592 292.096 511.385C291.492 510.166 291.19 508.828 291.19 507.372ZM296.393 505.455V507.372C296.393 508.236 296.594 509.035 296.996 509.769C297.411 510.503 298.139 510.87 299.18 510.87C300.269 510.87 301.009 510.503 301.4 509.769C301.802 509.035 302.004 508.236 302.004 507.372V505.455C302.004 504.59 301.814 503.786 301.435 503.04C301.057 502.294 300.305 501.921 299.18 501.921C298.127 501.921 297.399 502.3 296.996 503.058C296.594 503.815 296.393 504.614 296.393 505.455ZM293.534 535L318.534 498.636H323.186L298.186 535H293.534Z" fill="white"/>
</g>
<circle cx="307.913" cy="515.583" r="55.0829" stroke="white" stroke-width="25"/>
</g>
</g>
<path d="M474.161 697V660.636H498.237V666.975H481.849V675.64H496.639V681.979H481.849V697H474.161ZM503.267 697V669.727H510.83V697H503.267ZM507.066 666.212C505.942 666.212 504.977 665.839 504.172 665.093C503.379 664.335 502.982 663.43 502.982 662.376C502.982 661.335 503.379 660.441 504.172 659.695C504.977 658.938 505.942 658.559 507.066 658.559C508.191 658.559 509.15 658.938 509.943 659.695C510.748 660.441 511.15 661.335 511.15 662.376C511.15 663.43 510.748 664.335 509.943 665.093C509.15 665.839 508.191 666.212 507.066 666.212ZM524.453 681.233V697H516.89V669.727H524.098V674.539H524.418C525.022 672.953 526.034 671.698 527.454 670.775C528.875 669.84 530.597 669.372 532.621 669.372C534.515 669.372 536.166 669.786 537.575 670.615C538.984 671.444 540.078 672.627 540.86 674.166C541.641 675.693 542.032 677.516 542.032 679.635V697H534.468V680.984C534.48 679.315 534.053 678.013 533.189 677.078C532.325 676.131 531.136 675.658 529.62 675.658C528.602 675.658 527.703 675.877 526.922 676.315C526.152 676.753 525.548 677.392 525.11 678.232C524.684 679.061 524.465 680.061 524.453 681.233ZM558.043 697.444C555.971 697.444 554.095 696.911 552.414 695.846C550.745 694.769 549.419 693.188 548.437 691.105C547.466 689.01 546.981 686.441 546.981 683.399C546.981 680.274 547.484 677.676 548.49 675.604C549.496 673.521 550.834 671.964 552.503 670.935C554.184 669.893 556.025 669.372 558.025 669.372C559.552 669.372 560.825 669.633 561.843 670.153C562.872 670.662 563.701 671.302 564.328 672.071C564.968 672.829 565.453 673.574 565.784 674.308H566.015V660.636H573.561V697H566.104V692.632H565.784C565.429 693.39 564.926 694.141 564.275 694.887C563.636 695.621 562.801 696.231 561.771 696.716C560.753 697.201 559.511 697.444 558.043 697.444ZM560.44 691.425C561.659 691.425 562.689 691.093 563.529 690.43C564.382 689.756 565.033 688.815 565.482 687.607C565.944 686.4 566.175 684.985 566.175 683.364C566.175 681.742 565.95 680.333 565.5 679.138C565.05 677.942 564.399 677.019 563.547 676.368C562.695 675.717 561.659 675.391 560.44 675.391C559.197 675.391 558.149 675.729 557.297 676.403C556.445 677.078 555.8 678.013 555.362 679.209C554.924 680.404 554.705 681.789 554.705 683.364C554.705 684.95 554.924 686.353 555.362 687.572C555.811 688.779 556.457 689.726 557.297 690.413C558.149 691.087 559.197 691.425 560.44 691.425ZM601.402 697.444C599.331 697.444 597.454 696.911 595.774 695.846C594.105 694.769 592.779 693.188 591.796 691.105C590.826 689.01 590.34 686.441 590.34 683.399C590.34 680.274 590.843 677.676 591.85 675.604C592.856 673.521 594.193 671.964 595.862 670.935C597.543 669.893 599.384 669.372 601.384 669.372C602.911 669.372 604.184 669.633 605.202 670.153C606.232 670.662 607.06 671.302 607.688 672.071C608.327 672.829 608.812 673.574 609.144 674.308H609.374V660.636H616.921V697H609.463V692.632H609.144C608.789 693.39 608.285 694.141 607.634 694.887C606.995 695.621 606.161 696.231 605.131 696.716C604.113 697.201 602.87 697.444 601.402 697.444ZM603.799 691.425C605.018 691.425 606.048 691.093 606.889 690.43C607.741 689.756 608.392 688.815 608.842 687.607C609.303 686.4 609.534 684.985 609.534 683.364C609.534 681.742 609.309 680.333 608.86 679.138C608.41 677.942 607.759 677.019 606.906 676.368C606.054 675.717 605.018 675.391 603.799 675.391C602.556 675.391 601.509 675.729 600.656 676.403C599.804 677.078 599.159 678.013 598.721 679.209C598.283 680.404 598.064 681.789 598.064 683.364C598.064 684.95 598.283 686.353 598.721 687.572C599.171 688.779 599.816 689.726 600.656 690.413C601.509 691.087 602.556 691.425 603.799 691.425ZM635.569 697.533C632.763 697.533 630.348 696.964 628.324 695.828C626.312 694.68 624.761 693.058 623.672 690.963C622.583 688.856 622.039 686.364 622.039 683.488C622.039 680.683 622.583 678.22 623.672 676.102C624.761 673.983 626.294 672.331 628.271 671.148C630.26 669.964 632.592 669.372 635.267 669.372C637.066 669.372 638.741 669.662 640.292 670.242C641.854 670.81 643.215 671.669 644.375 672.817C645.547 673.965 646.459 675.409 647.11 677.149C647.761 678.877 648.086 680.902 648.086 683.222V685.299H625.057V680.612H640.966C640.966 679.522 640.73 678.558 640.256 677.717C639.783 676.877 639.126 676.22 638.285 675.746C637.457 675.261 636.492 675.018 635.391 675.018C634.243 675.018 633.225 675.285 632.337 675.817C631.461 676.338 630.775 677.043 630.277 677.93C629.78 678.806 629.526 679.783 629.514 680.86V685.317C629.514 686.666 629.762 687.832 630.26 688.815C630.769 689.797 631.485 690.555 632.408 691.087C633.331 691.62 634.426 691.886 635.693 691.886C636.533 691.886 637.303 691.768 638.001 691.531C638.699 691.295 639.297 690.939 639.794 690.466C640.292 689.992 640.67 689.412 640.931 688.726L647.926 689.188C647.571 690.868 646.843 692.336 645.743 693.591C644.654 694.834 643.245 695.804 641.517 696.503C639.8 697.189 637.818 697.533 635.569 697.533ZM660.799 697.515C659.059 697.515 657.509 697.213 656.147 696.609C654.786 695.994 653.709 695.088 652.916 693.893C652.135 692.685 651.744 691.182 651.744 689.383C651.744 687.868 652.022 686.595 652.578 685.565C653.135 684.536 653.892 683.707 654.851 683.08C655.81 682.452 656.899 681.979 658.118 681.659C659.349 681.339 660.64 681.115 661.989 680.984C663.575 680.819 664.854 680.665 665.824 680.523C666.795 680.369 667.499 680.144 667.937 679.848C668.375 679.552 668.594 679.114 668.594 678.534V678.428C668.594 677.303 668.239 676.433 667.529 675.817C666.83 675.202 665.836 674.894 664.546 674.894C663.185 674.894 662.101 675.196 661.297 675.8C660.492 676.392 659.959 677.137 659.699 678.037L652.703 677.469C653.058 675.812 653.756 674.379 654.798 673.172C655.84 671.953 657.183 671.018 658.828 670.366C660.486 669.704 662.403 669.372 664.581 669.372C666.096 669.372 667.547 669.55 668.931 669.905C670.328 670.26 671.565 670.81 672.642 671.556C673.731 672.302 674.59 673.261 675.217 674.433C675.844 675.593 676.158 676.983 676.158 678.605V697H668.985V693.218H668.772C668.334 694.07 667.748 694.822 667.014 695.473C666.28 696.112 665.398 696.615 664.368 696.982C663.338 697.337 662.149 697.515 660.799 697.515ZM662.966 692.295C664.078 692.295 665.061 692.076 665.913 691.638C666.765 691.188 667.434 690.584 667.919 689.827C668.405 689.069 668.647 688.211 668.647 687.252V684.358C668.411 684.512 668.085 684.654 667.671 684.784C667.268 684.902 666.813 685.015 666.304 685.121C665.795 685.216 665.286 685.305 664.777 685.388C664.268 685.459 663.806 685.524 663.392 685.583C662.504 685.713 661.729 685.92 661.066 686.205C660.403 686.489 659.888 686.873 659.521 687.359C659.154 687.832 658.971 688.424 658.971 689.134C658.971 690.164 659.343 690.951 660.089 691.496C660.847 692.028 661.806 692.295 662.966 692.295ZM689.59 660.636V697H682.026V660.636H689.59ZM718.341 677.504L711.416 677.93C711.298 677.339 711.044 676.806 710.653 676.332C710.262 675.847 709.747 675.462 709.108 675.178C708.481 674.882 707.729 674.734 706.853 674.734C705.681 674.734 704.693 674.983 703.888 675.48C703.083 675.965 702.681 676.616 702.681 677.433C702.681 678.084 702.941 678.635 703.462 679.085C703.983 679.534 704.876 679.895 706.143 680.168L711.079 681.162C713.731 681.706 715.707 682.582 717.009 683.79C718.311 684.997 718.963 686.583 718.963 688.548C718.963 690.336 718.436 691.904 717.382 693.254C716.341 694.603 714.908 695.656 713.085 696.414C711.274 697.16 709.185 697.533 706.818 697.533C703.207 697.533 700.331 696.781 698.188 695.278C696.058 693.763 694.809 691.703 694.442 689.099L701.882 688.708C702.106 689.809 702.651 690.649 703.515 691.229C704.379 691.798 705.486 692.082 706.835 692.082C708.161 692.082 709.227 691.827 710.031 691.318C710.848 690.797 711.262 690.129 711.274 689.312C711.262 688.625 710.972 688.063 710.404 687.625C709.836 687.175 708.96 686.832 707.776 686.595L703.053 685.654C700.39 685.121 698.407 684.198 697.105 682.884C695.815 681.57 695.17 679.895 695.17 677.859C695.17 676.107 695.643 674.598 696.59 673.332C697.549 672.065 698.893 671.089 700.621 670.402C702.361 669.715 704.397 669.372 706.729 669.372C710.173 669.372 712.884 670.1 714.861 671.556C716.85 673.012 718.01 674.995 718.341 677.504ZM742.862 681.233V697H735.298V669.727H742.507V674.539H742.826C743.43 672.953 744.442 671.698 745.862 670.775C747.283 669.84 749.005 669.372 751.029 669.372C752.923 669.372 754.575 669.786 755.983 670.615C757.392 671.444 758.487 672.627 759.268 674.166C760.049 675.693 760.44 677.516 760.44 679.635V697H752.876V680.984C752.888 679.315 752.462 678.013 751.597 677.078C750.733 676.131 749.544 675.658 748.029 675.658C747.011 675.658 746.111 675.877 745.33 676.315C744.56 676.753 743.957 677.392 743.519 678.232C743.093 679.061 742.874 680.061 742.862 681.233ZM778.83 697.533C776.025 697.533 773.61 696.964 771.586 695.828C769.574 694.68 768.023 693.058 766.934 690.963C765.845 688.856 765.3 686.364 765.3 683.488C765.3 680.683 765.845 678.22 766.934 676.102C768.023 673.983 769.556 672.331 771.533 671.148C773.521 669.964 775.853 669.372 778.528 669.372C780.328 669.372 782.003 669.662 783.553 670.242C785.116 670.81 786.477 671.669 787.637 672.817C788.809 673.965 789.72 675.409 790.371 677.149C791.022 678.877 791.348 680.902 791.348 683.222V685.299H768.319V680.612H784.228C784.228 679.522 783.991 678.558 783.518 677.717C783.044 676.877 782.387 676.22 781.547 675.746C780.718 675.261 779.754 675.018 778.653 675.018C777.504 675.018 776.487 675.285 775.599 675.817C774.723 676.338 774.036 677.043 773.539 677.93C773.042 678.806 772.787 679.783 772.776 680.86V685.317C772.776 686.666 773.024 687.832 773.521 688.815C774.03 689.797 774.746 690.555 775.67 691.087C776.593 691.62 777.688 691.886 778.955 691.886C779.795 691.886 780.564 691.768 781.263 691.531C781.961 691.295 782.559 690.939 783.056 690.466C783.553 689.992 783.932 689.412 784.192 688.726L791.188 689.188C790.833 690.868 790.105 692.336 789.004 693.591C787.915 694.834 786.507 695.804 784.778 696.503C783.062 697.189 781.079 697.533 778.83 697.533ZM804.061 697.515C802.321 697.515 800.77 697.213 799.409 696.609C798.048 695.994 796.971 695.088 796.178 693.893C795.396 692.685 795.006 691.182 795.006 689.383C795.006 687.868 795.284 686.595 795.84 685.565C796.397 684.536 797.154 683.707 798.113 683.08C799.072 682.452 800.161 681.979 801.38 681.659C802.611 681.339 803.901 681.115 805.251 680.984C806.837 680.819 808.115 680.665 809.086 680.523C810.057 680.369 810.761 680.144 811.199 679.848C811.637 679.552 811.856 679.114 811.856 678.534V678.428C811.856 677.303 811.501 676.433 810.79 675.817C810.092 675.202 809.098 674.894 807.808 674.894C806.446 674.894 805.363 675.196 804.558 675.8C803.753 676.392 803.221 677.137 802.96 678.037L795.964 677.469C796.32 675.812 797.018 674.379 798.06 673.172C799.101 671.953 800.445 671.018 802.09 670.366C803.747 669.704 805.665 669.372 807.843 669.372C809.358 669.372 810.808 669.55 812.193 669.905C813.59 670.26 814.827 670.81 815.904 671.556C816.993 672.302 817.851 673.261 818.479 674.433C819.106 675.593 819.42 676.983 819.42 678.605V697H812.246V693.218H812.033C811.595 694.07 811.009 694.822 810.276 695.473C809.542 696.112 808.66 696.615 807.63 696.982C806.6 697.337 805.411 697.515 804.061 697.515ZM806.227 692.295C807.34 692.295 808.322 692.076 809.175 691.638C810.027 691.188 810.696 690.584 811.181 689.827C811.666 689.069 811.909 688.211 811.909 687.252V684.358C811.672 684.512 811.347 684.654 810.933 684.784C810.53 684.902 810.074 685.015 809.565 685.121C809.056 685.216 808.547 685.305 808.038 685.388C807.529 685.459 807.068 685.524 806.653 685.583C805.766 685.713 804.99 685.92 804.327 686.205C803.665 686.489 803.15 686.873 802.783 687.359C802.416 687.832 802.232 688.424 802.232 689.134C802.232 690.164 802.605 690.951 803.351 691.496C804.108 692.028 805.067 692.295 806.227 692.295ZM825.288 697V669.727H832.621V674.486H832.905C833.402 672.793 834.237 671.515 835.409 670.651C836.581 669.775 837.93 669.337 839.457 669.337C839.836 669.337 840.244 669.36 840.682 669.408C841.12 669.455 841.505 669.52 841.836 669.603V676.315C841.481 676.208 840.99 676.113 840.363 676.031C839.735 675.948 839.161 675.906 838.64 675.906C837.528 675.906 836.533 676.149 835.657 676.634C834.793 677.108 834.107 677.771 833.598 678.623C833.1 679.475 832.852 680.458 832.852 681.57V697H825.288ZM861.989 707.227C861.03 707.227 860.131 707.15 859.29 706.996C858.462 706.854 857.775 706.671 857.23 706.446L858.935 700.8C859.823 701.072 860.622 701.22 861.332 701.244C862.054 701.267 862.676 701.102 863.196 700.746C863.729 700.391 864.161 699.788 864.493 698.935L864.936 697.781L855.153 669.727H863.108L868.754 689.756H869.038L874.738 669.727H882.745L872.145 699.947C871.636 701.415 870.944 702.694 870.068 703.783C869.204 704.884 868.109 705.73 866.783 706.322C865.457 706.925 863.859 707.227 861.989 707.227ZM898.06 697.533C895.302 697.533 892.916 696.947 890.904 695.775C888.904 694.591 887.359 692.946 886.27 690.839C885.181 688.72 884.636 686.264 884.636 683.47C884.636 680.653 885.181 678.191 886.27 676.084C887.359 673.965 888.904 672.32 890.904 671.148C892.916 669.964 895.302 669.372 898.06 669.372C900.818 669.372 903.197 669.964 905.197 671.148C907.21 672.32 908.76 673.965 909.849 676.084C910.938 678.191 911.483 680.653 911.483 683.47C911.483 686.264 910.938 688.72 909.849 690.839C908.76 692.946 907.21 694.591 905.197 695.775C903.197 696.947 900.818 697.533 898.06 697.533ZM898.095 691.673C899.35 691.673 900.397 691.318 901.238 690.608C902.078 689.886 902.712 688.903 903.138 687.661C903.576 686.418 903.795 685.003 903.795 683.417C903.795 681.831 903.576 680.416 903.138 679.173C902.712 677.93 902.078 676.948 901.238 676.226C900.397 675.504 899.35 675.143 898.095 675.143C896.829 675.143 895.763 675.504 894.899 676.226C894.047 676.948 893.402 677.93 892.964 679.173C892.538 680.416 892.325 681.831 892.325 683.417C892.325 685.003 892.538 686.418 892.964 687.661C893.402 688.903 894.047 689.886 894.899 690.608C895.763 691.318 896.829 691.673 898.095 691.673ZM933.891 685.388V669.727H941.455V697H934.192V692.046H933.908C933.293 693.644 932.269 694.929 930.837 695.899C929.416 696.87 927.682 697.355 925.634 697.355C923.811 697.355 922.207 696.941 920.822 696.112C919.438 695.284 918.354 694.106 917.573 692.579C916.804 691.052 916.413 689.223 916.401 687.092V669.727H923.965V685.743C923.977 687.353 924.409 688.625 925.261 689.56C926.114 690.496 927.256 690.963 928.688 690.963C929.6 690.963 930.452 690.756 931.245 690.342C932.038 689.915 932.677 689.288 933.163 688.46C933.66 687.631 933.902 686.607 933.891 685.388Z" fill="white"/>
<defs>
<filter id="filter0_d_304_45" x="173.179" y="448" width="266.132" height="284.392" filterUnits="userSpaceOnUse" color-interpolation-filters="sRGB">
<feFlood flood-opacity="0" result="BackgroundImageFix"/>
<feColorMatrix in="SourceAlpha" type="matrix" values="0 0 0 0 0 0 0 0 0 0 0 0 0 0 0 0 0 0 127 0" result="hardAlpha"/>
<feOffset dy="4"/>
<feGaussianBlur stdDeviation="2"/>
<feComposite in2="hardAlpha" operator="out"/>
<feColorMatrix type="matrix" values="0 0 0 0 0 0 0 0 0 0 0 0 0 0 0 0 0 0 0.25 0"/>
<feBlend mode="normal" in2="BackgroundImageFix" result="effect1_dropShadow_304_45"/>
<feBlend mode="normal" in="SourceGraphic" in2="effect1_dropShadow_304_45" result="shape"/>
</filter>
<filter id="filter1_dd_304_45" x="173.179" y="614.407" width="266.132" height="117.985" filterUnits="userSpaceOnUse" color-interpolation-filters="sRGB">
<feFlood flood-opacity="0" result="BackgroundImageFix"/>
<feColorMatrix in="SourceAlpha" type="matrix" values="0 0 0 0 0 0 0 0 0 0 0 0 0 0 0 0 0 0 127 0" result="hardAlpha"/>
<feOffset dy="4"/>
<feGaussianBlur stdDeviation="2"/>
<feComposite in2="hardAlpha" operator="out"/>
<feColorMatrix type="matrix" values="0 0 0 0 0 0 0 0 0 0 0 0 0 0 0 0 0 0 0.25 0"/>
<feBlend mode="normal" in2="BackgroundImageFix" result="effect1_dropShadow_304_45"/>
<feColorMatrix in="SourceAlpha" type="matrix" values="0 0 0 0 0 0 0 0 0 0 0 0 0 0 0 0 0 0 127 0" result="hardAlpha"/>
<feOffset dy="4"/>
<feGaussianBlur stdDeviation="2"/>
<feComposite in2="hardAlpha" operator="out"/>
<feColorMatrix type="matrix" values="0 0 0 0 0 0 0 0 0 0 0 0 0 0 0 0 0 0 0.25 0"/>
<feBlend mode="normal" in2="effect1_dropShadow_304_45" result="effect2_dropShadow_304_45"/>
<feBlend mode="normal" in="SourceGraphic" in2="effect2_dropShadow_304_45" result="shape"/>
</filter>
<filter id="filter2_dd_304_45" x="236.33" y="448" width="143.166" height="207.591" filterUnits="userSpaceOnUse" color-interpolation-filters="sRGB">
<feFlood flood-opacity="0" result="BackgroundImageFix"/>
<feColorMatrix in="SourceAlpha" type="matrix" values="0 0 0 0 0 0 0 0 0 0 0 0 0 0 0 0 0 0 127 0" result="hardAlpha"/>
<feOffset dy="4"/>
<feGaussianBlur stdDeviation="2"/>
<feComposite in2="hardAlpha" operator="out"/>
<feColorMatrix type="matrix" values="0 0 0 0 0 0 0 0 0 0 0 0 0 0 0 0 0 0 0.25 0"/>
<feBlend mode="normal" in2="BackgroundImageFix" result="effect1_dropShadow_304_45"/>
<feColorMatrix in="SourceAlpha" type="matrix" values="0 0 0 0 0 0 0 0 0 0 0 0 0 0 0 0 0 0 127 0" result="hardAlpha"/>
<feOffset dy="4"/>
<feGaussianBlur stdDeviation="2"/>
<feComposite in2="hardAlpha" operator="out"/>
<feColorMatrix type="matrix" values="0 0 0 0 0 0 0 0 0 0 0 0 0 0 0 0 0 0 0.25 0"/>
<feBlend mode="normal" in2="effect1_dropShadow_304_45" result="effect2_dropShadow_304_45"/>
<feBlend mode="normal" in="SourceGraphic" in2="effect2_dropShadow_304_45" result="shape"/>
</filter>
<filter id="filter3_dd_304_45" x="287.19" y="497.375" width="42.6768" height="46.8853" filterUnits="userSpaceOnUse" color-interpolation-filters="sRGB">
<feFlood flood-opacity="0" result="BackgroundImageFix"/>
<feColorMatrix in="SourceAlpha" type="matrix" values="0 0 0 0 0 0 0 0 0 0 0 0 0 0 0 0 0 0 127 0" result="hardAlpha"/>
<feOffset dy="4"/>
<feGaussianBlur stdDeviation="2"/>
<feComposite in2="hardAlpha" operator="out"/>
<feColorMatrix type="matrix" values="0 0 0 0 0 0 0 0 0 0 0 0 0 0 0 0 0 0 0.25 0"/>
<feBlend mode="normal" in2="BackgroundImageFix" result="effect1_dropShadow_304_45"/>
<feColorMatrix in="SourceAlpha" type="matrix" values="0 0 0 0 0 0 0 0 0 0 0 0 0 0 0 0 0 0 127 0" result="hardAlpha"/>
<feOffset dy="4"/>
<feGaussianBlur stdDeviation="2"/>
<feComposite in2="hardAlpha" operator="out"/>
<feColorMatrix type="matrix" values="0 0 0 0 0 0 0 0 0 0 0 0 0 0 0 0 0 0 0.25 0"/>
<feBlend mode="normal" in2="effect1_dropShadow_304_45" result="effect2_dropShadow_304_45"/>
<feBlend mode="normal" in="SourceGraphic" in2="effect2_dropShadow_304_45" result="shape"/>
</filter>
</defs>
</svg>
